<?xml version="1.0" encoding="UTF-8" standalone="no"?>
<svg width="250" height="324.69949" version="1.1" id="svg1" xmlns:xlink="http://www.w3.org/1999/xlink" xmlns="http://www.w3.org/2000/svg" xmlns:svg="http://www.w3.org/2000/svg" xmlns:rdf="http://www.w3.org/1999/02/22-rdf-syntax-ns#" xmlns:cc="http://creativecommons.org/ns#" xmlns:dc="http://purl.org/dc/elements/1.1/">
  <defs id="defs1">
    <linearGradient id="linearGradient1">
      <stop style="stop-color:#0076ff;stop-opacity:1;" offset="0" id="stop1" />
      <stop style="stop-color:#00d7ff;stop-opacity:0;" offset="1" id="stop2" />
    </linearGradient>
    <linearGradient xlink:href="#linearGradient1" id="linearGradient2" x1="17.922035" y1="3.6658714" x2="154.78122" y2="154.57755" gradientUnits="userSpaceOnUse" gradientTransform="matrix(3.0769228,0,0,3.0769228,-71.92307,-34.57331)" />
  </defs>
  <title id="title1">Markdown icon</title>
  <desc id="desc1">This is shape (source) for Clarity vector icon theme for gtk</desc>
  <metadata id="metadata1">
    <rdf:RDF>
      <cc:Work rdf:about="">
        <dc:title>Markdown icon</dc:title>
        <dc:description>This is shape (source) for Clarity vector icon theme for gtk</dc:description>
        <dc:creator>
          <cc:Agent>
            <dc:title>Jakub Jankiewicz</dc:title>
          </cc:Agent>
        </dc:creator>
        <dc:rights>
          <cc:Agent>
            <dc:title>Jakub Jankiewicz</dc:title>
          </cc:Agent>
        </dc:rights>
        <dc:date>2010</dc:date>
        <dc:format>image/svg+xml</dc:format>
        <dc:type rdf:resource="http://purl.org/dc/dcmitype/StillImage" />
        <cc:license rdf:resource="http://creativecommons.org/licenses/by-sa/3.0/" />
      </cc:Work>
    </rdf:RDF>
  </metadata>
  <path id="path2" style="fill:#ffffff;fill-opacity:1;stroke-width:3.07692" d="M 17.596155,0 C 7.7998188,0 0,7.895983 0,17.692299 V 307.00718 c 0,9.7963 7.7998188,17.6923 17.596155,17.6923 H 232.40384 c 9.79631,0 17.59616,-7.896 17.59616,-17.6923 V 89.615382 h -64.71154 c -13.24957,0 -24.80769,-9.664953 -24.80769,-22.500004 V 0 Z M 172.78846,0 v 67.115378 c 0,5.274219 5.02145,10.192307 12.5,10.192307 H 250 Z" />
  <path id="path1" style="fill:url(#linearGradient2);fill-opacity:1;stroke-width:3.07692" d="M 17.596569,0 C 7.8002325,0 0,7.8957367 0,17.692053 V 307.00736 c 0,9.7963 7.8002325,17.69207 17.596569,17.69207 H 232.40343 c 9.7963,0 17.59657,-7.89577 17.59657,-17.69207 V 89.615874 h -64.71138 c -13.24957,0 -24.80794,-9.664943 -24.80794,-22.499994 V 0 Z M 172.78862,0 v 67.11588 c 0,5.274219 5.02145,10.192061 12.5,10.192061 H 250 Z m -33.39301,129.22851 c 2.26954,0 4.23082,0.40581 5.88434,1.21636 1.65352,0.81054 3.01536,1.99409 4.08528,3.55035 1.06992,1.52383 1.86407,3.40417 2.38282,5.64128 0.51875,2.20468 0.77799,4.70086 0.77799,7.48914 0,2.82071 -0.25924,5.33329 -0.77799,7.53798 -0.51875,2.20469 -1.3129,4.08503 -2.38282,5.64128 -1.06992,1.52383 -2.43176,2.69097 -4.08528,3.50151 -1.65352,0.81055 -3.6148,1.21637 -5.88434,1.21637 -2.26953,0 -4.23081,-0.40582 -5.88433,-1.21637 -1.65351,-0.81054 -3.01536,-1.97768 -4.08528,-3.50151 -1.06992,-1.55625 -1.86515,-3.43659 -2.3839,-5.64128 -0.51875,-2.20469 -0.778,-4.71727 -0.778,-7.53798 0,-3.76094 0.47036,-6.97031 1.4106,-9.6289 0.94022,-2.69102 2.36662,-4.73434 4.27951,-6.12847 1.94531,-1.42656 4.42617,-2.13976 7.4414,-2.13976 z m 33.4592,0.0976 c 1.68594,0 3.16155,0.1783 4.42601,0.53493 1.29687,0.32422 2.6095,0.81099 3.93879,1.45942 l -2.33398,5.78668 c -1.19961,-0.61602 -2.31862,-1.03716 -3.35612,-1.2641 -1.00507,-0.22697 -1.97752,-0.34072 -2.91775,-0.34072 -1.68594,0 -3.11233,0.29206 -4.27951,0.87566 -1.16719,0.55117 -2.1079,1.36171 -2.82119,2.43164 -0.68085,1.06991 -1.18294,2.35082 -1.50715,3.84223 -0.29181,1.4914 -0.43837,3.14422 -0.43837,4.95985 0,2.52891 0.29205,4.63675 0.87565,6.32269 0.61602,1.65353 1.55673,2.88521 2.82118,3.69575 1.26446,0.81055 2.91727,1.21636 4.95986,1.21636 1.13476,0 2.2855,-0.14657 3.45268,-0.43836 1.19961,-0.2918 2.59427,-0.79389 4.18294,-1.50716 v 6.32269 c -1.39413,0.61601 -2.85333,1.06997 -4.37717,1.36177 -1.49141,0.2918 -2.96592,0.43728 -4.42491,0.43728 -3.33945,0 -6.09596,-0.69678 -8.26823,-2.09093 -2.13984,-1.42656 -3.74453,-3.42066 -4.81446,-5.98199 -1.03749,-2.59375 -1.55598,-5.6095 -1.55598,-9.04622 0,-2.88555 0.3566,-5.46267 1.06988,-7.73221 0.71328,-2.30195 1.75025,-4.26324 3.11197,-5.88432 1.39415,-1.6211 3.11259,-2.85386 5.15517,-3.69684 2.07501,-0.84296 4.44211,-1.2641 7.10069,-1.2641 z m -75.040141,0.48611 h 10.747621 c 3.01523,0 5.62517,0.64865 7.82985,1.94553 2.2047,1.26445 3.90674,3.16119 5.10634,5.6901 1.23204,2.52891 1.84788,5.67374 1.84788,9.43468 0,3.79336 -0.63224,7.00273 -1.8967,9.6289 -1.23204,2.62619 -2.99862,4.62028 -5.30057,5.98199 -2.26953,1.36173 -4.97682,2.04319 -8.12174,2.04319 H 97.814669 Z m 87.539061,0 h 7.05186 v 21.69053 c 0,1.81563 0.19363,3.27482 0.58269,4.37718 0.38906,1.06991 0.97317,1.84765 1.7513,2.33398 0.81055,0.48633 1.8158,0.72917 3.01541,0.72917 1.26445,0 2.28502,-0.24284 3.06316,-0.72917 0.81054,-0.51875 1.39465,-1.3293 1.7513,-2.43164 0.35663,-1.10235 0.53494,-2.54514 0.53494,-4.32834 v -21.64171 h 7.05186 v 22.85807 c 0,2.5289 -0.47035,4.71663 -1.41059,6.56467 -0.90782,1.84804 -2.28606,3.27552 -4.13411,4.28059 -1.84806,1.00508 -4.16593,1.50717 -6.95422,1.50717 -2.69102,0 -4.96076,-0.47035 -6.80881,-1.41059 -1.81562,-0.97265 -3.19279,-2.38264 -4.13303,-4.23069 -0.90782,-1.84805 -1.36176,-4.06966 -1.36176,-6.66341 z m -137.728947,1.55599 h 5.350474 v 6.61457 h 9.96962 v 5.83551 h -9.96962 v 10.84527 c 0,1.26445 0.210032,2.22157 0.631514,2.87002 0.421483,0.61601 0.989191,1.03714 1.702476,1.2641 0.713275,0.22695 1.491016,0.3407 2.33398,0.3407 0.778124,0 1.572264,-0.0656 2.382813,-0.1953 0.81054,-0.12969 1.865023,-0.30799 3.161894,-0.53494 v 5.5447 c -1.199606,0.38906 -2.383158,0.66471 -3.55035,0.82683 -1.134767,0.16211 -2.253775,0.24305 -3.356117,0.24305 -2.269534,0 -4.181598,-0.32379 -5.737848,-0.97222 -1.523834,-0.68087 -2.67565,-1.71893 -3.453775,-3.11307 -0.778124,-1.42656 -1.166453,-3.27409 -1.166453,-5.54362 v -11.57547 h -6.079646 v -4.37609 l 6.614585,-1.45942 z m 91.770827,3.93989 c -1.39413,0 -2.54487,0.45395 -3.45268,1.36176 -0.8754,0.87539 -1.52405,2.18802 -1.94554,3.9388 -0.38906,1.75078 -0.58376,3.92317 -0.58376,6.51692 0,2.59375 0.1947,4.76614 0.58376,6.51693 0.42149,1.75079 1.07014,3.07981 1.94554,3.98763 0.90781,0.87539 2.05855,1.31294 3.45268,1.31294 1.39415,0 2.52848,-0.43755 3.40387,-1.31294 0.87539,-0.9078 1.52404,-2.23684 1.94554,-3.98763 0.42148,-1.75079 0.63258,-3.93958 0.63258,-6.56575 0,-3.85821 -0.47035,-6.77552 -1.41059,-8.75326 -0.94023,-2.01016 -2.46398,-3.0154 -4.5714,-3.0154 z m -34.62673,0.4861 v 22.76042 h 2.86893 c 2.95038,0 5.10637,-0.95711 6.46809,-2.87001 1.39415,-1.91288 2.09202,-4.8302 2.09202,-8.75325 0,-2.59375 -0.30847,-4.70161 -0.92448,-6.3227 -0.5836,-1.65352 -1.45868,-2.86879 -2.62587,-3.64692 -1.16718,-0.77812 -2.6428,-1.16754 -4.426,-1.16754 z m -23.393017,1.70248 c 1.718363,0 3.453214,0.1783 5.203992,0.53494 1.750787,0.32422 3.45283,0.84271 5.106343,1.55598 l -2.18859,5.39823 c -1.4914,-0.55117 -2.917793,-0.97231 -4.279513,-1.2641 -1.329296,-0.2918 -2.691144,-0.43838 -4.085289,-0.43838 -1.069918,0 -1.912193,0.13016 -2.528203,0.38954 -0.583596,0.25938 -0.875655,0.71333 -0.875655,1.36176 0,0.5836 0.226431,1.06928 0.680338,1.45834 0.453907,0.35664 1.118968,0.69792 1.994357,1.02213 0.875389,0.29181 1.928779,0.6648 3.16081,1.11872 1.458985,0.51874 2.804424,1.10177 4.036456,1.75021 1.232031,0.64844 2.220877,1.5082 2.966577,2.57812 0.778124,1.0375 1.167536,2.44749 1.167536,4.23069 0,1.81562 -0.453946,3.30655 -1.36176,4.47374 -0.907813,1.13476 -2.253252,1.97813 -4.036455,2.52929 -1.783212,0.55118 -4.003735,0.82683 -6.662326,0.82683 -1.588674,0 -3.161628,-0.11376 -4.717887,-0.34071 -1.523824,-0.22696 -3.063969,-0.63168 -4.620219,-1.21528 v -6.56575 c 1.394136,0.61601 2.9671,1.1509 4.717877,1.60482 1.750778,0.42148 3.566583,0.63258 5.447049,0.63258 1.232032,0 2.204468,-0.14656 2.917753,-0.43836 0.713275,-0.32422 1.069878,-0.84271 1.069878,-1.55598 0,-0.61603 -0.24284,-1.10279 -0.729172,-1.45943 -0.486331,-0.38906 -1.199518,-0.76098 -2.139746,-1.11762 -0.907824,-0.38906 -2.05964,-0.84301 -3.453785,-1.36176 -1.458985,-0.5836 -2.771606,-1.18412 -3.938797,-1.80013 -1.134777,-0.64844 -2.04267,-1.44258 -2.72353,-2.38282 -0.648435,-0.97265 -0.97222,-2.22074 -0.97222,-3.74457 0,-1.81563 0.453946,-3.29123 1.36176,-4.426 0.940238,-1.16718 2.22006,-2.00945 3.841149,-2.52821 1.621098,-0.55117 3.501427,-0.82682 5.641272,-0.82682 z m -15.173611,63.07725 21.087243,24.6875 21.093745,-24.6875 26.35852,0.51107 v 80.12044 h -26.35852 v -40.31901 l -20.991743,26.10569 v 0.25282 l -0.102002,-0.12045 -0.09544,0.12045 v -0.25282 L 66.202291,240.88644 v 40.31901 H 39.843784 v -80.12044 z m 94.927298,0 h 27.09744 v 41.29232 h 21.92926 l -35.48069,47.14518 -35.47525,-47.14518 h 21.92924 z" />
</svg>
