<?xml version="1.0" encoding="UTF-8" standalone="no"?>
<svg width="450" height="584.45911" version="1.1" id="svg1" xmlns:xlink="http://www.w3.org/1999/xlink" xmlns="http://www.w3.org/2000/svg" xmlns:svg="http://www.w3.org/2000/svg" xmlns:rdf="http://www.w3.org/1999/02/22-rdf-syntax-ns#" xmlns:cc="http://creativecommons.org/ns#" xmlns:dc="http://purl.org/dc/elements/1.1/">
  <defs id="defs1">
    <linearGradient id="linearGradient1">
      <stop style="stop-color:#0076ff;stop-opacity:1;" offset="0" id="stop1" />
      <stop style="stop-color:#00d7ff;stop-opacity:0;" offset="1" id="stop2" />
    </linearGradient>
    <linearGradient xlink:href="#linearGradient1" id="linearGradient2" x1="17.922035" y1="3.6658714" x2="154.78122" y2="154.57755" gradientUnits="userSpaceOnUse" gradientTransform="matrix(5.5384613,0,0,5.5384613,-129.46153,-62.23196)" />
  </defs>
  <title id="title1">Markdown icon</title>
  <desc id="desc1">This is shape (source) for Clarity vector icon theme for gtk</desc>
  <metadata id="metadata1">
    <rdf:RDF>
      <cc:Work rdf:about="">
        <dc:title>Markdown icon</dc:title>
        <dc:description>This is shape (source) for Clarity vector icon theme for gtk</dc:description>
        <dc:creator>
          <cc:Agent>
            <dc:title>Jakub Jankiewicz</dc:title>
          </cc:Agent>
        </dc:creator>
        <dc:rights>
          <cc:Agent>
            <dc:title>Jakub Jankiewicz</dc:title>
          </cc:Agent>
        </dc:rights>
        <dc:date>2010</dc:date>
        <dc:format>image/svg+xml</dc:format>
        <dc:type rdf:resource="http://purl.org/dc/dcmitype/StillImage" />
        <cc:license rdf:resource="http://creativecommons.org/licenses/by-sa/3.0/" />
      </cc:Work>
    </rdf:RDF>
  </metadata>
  <path id="path2" style="fill:#ffffff;fill-opacity:1;stroke-width:5.53846" d="M 31.67308,0 C 14.03967,0 0,14.21278 0,31.84615 v 520.76681 c 0,17.63333 14.03967,31.84614 31.67308,31.84614 H 418.32692 C 435.96027,584.4591 450,570.24629 450,552.61296 V 161.30769 H 333.51923 c -23.84923,0 -44.65385,-17.39691 -44.65385,-40.5 V 0 Z m 279.34615,0 v 120.80769 c 0,9.4936 9.03861,18.34615 22.5,18.34615 H 450 Z" />
  <path id="path1" style="fill:url(#linearGradient2);fill-opacity:1;stroke-width:5.53846" d="M 31.673828 0 C 14.040418 0 0 14.212333 0 31.845703 L 0 552.61328 C 0 570.24661 14.040418 584.45898 31.673828 584.45898 L 418.32617 584.45898 C 435.95952 584.45898 450 570.24661 450 552.61328 L 450 161.30859 L 333.51953 161.30859 C 309.6703 161.30859 288.86523 143.91168 288.86523 120.80859 L 288.86523 0 L 31.673828 0 z M 311.01953 0 L 311.01953 120.80859 C 311.01953 130.30219 320.05814 139.1543 333.51953 139.1543 L 450 139.1543 L 311.01953 0 z M 250.91211 232.61133 C 254.99727 232.61133 258.52758 233.34179 261.50391 234.80078 C 264.48024 236.25976 266.93156 238.39015 268.85742 241.19141 C 270.78328 243.9343 272.21274 247.3189 273.14648 251.3457 C 274.08024 255.31414 274.54688 259.80727 274.54688 264.82617 C 274.54688 269.90344 274.08024 274.42609 273.14648 278.39453 C 272.21274 282.36297 270.78328 285.74758 268.85742 288.54883 C 266.93156 291.29172 264.48024 293.39258 261.50391 294.85156 C 258.52758 296.31055 254.99727 297.04102 250.91211 297.04102 C 246.82695 297.04102 243.29664 296.31055 240.32031 294.85156 C 237.34399 293.39258 234.89266 291.29172 232.9668 288.54883 C 231.04094 285.74758 229.60953 282.36297 228.67578 278.39453 C 227.74203 274.42609 227.27539 269.90344 227.27539 264.82617 C 227.27539 258.05648 228.12203 252.27961 229.81445 247.49414 C 231.50687 242.65031 234.07437 238.97234 237.51758 236.46289 C 241.01914 233.89508 245.48469 232.61133 250.91211 232.61133 z M 311.13867 232.78711 C 314.17336 232.78711 316.82945 233.10805 319.10547 233.75 C 321.43984 234.33359 323.80257 235.20977 326.19531 236.37695 L 321.99414 246.79297 C 319.83484 245.68414 317.82063 244.92609 315.95312 244.51758 C 314.144 244.10906 312.39359 243.9043 310.70117 243.9043 C 307.66648 243.9043 305.09898 244.43 302.99805 245.48047 C 300.89711 246.47258 299.20383 247.93156 297.91992 249.85742 C 296.69438 251.78328 295.79062 254.0889 295.20703 256.77344 C 294.68179 259.45797 294.41797 262.43305 294.41797 265.70117 C 294.41797 270.25321 294.94367 274.04734 295.99414 277.08203 C 297.10297 280.05836 298.79625 282.2754 301.07227 283.73438 C 303.34829 285.19336 306.32336 285.92383 310 285.92383 C 312.04258 285.92383 314.1139 285.66 316.21484 285.13477 C 318.37414 284.60953 320.88453 283.70578 323.74414 282.42188 L 323.74414 293.80273 C 321.23469 294.91156 318.60813 295.72867 315.86523 296.25391 C 313.1807 296.77914 310.52656 297.04102 307.90039 297.04102 C 301.88938 297.04102 296.92766 295.7868 293.01758 293.27734 C 289.16586 290.70953 286.27742 287.12016 284.35156 282.50977 C 282.48406 277.84101 281.55078 272.41266 281.55078 266.22656 C 281.55078 261.03258 282.19266 256.39375 283.47656 252.30859 C 284.76047 248.16507 286.62703 244.63476 289.07812 241.7168 C 291.58758 238.79882 294.68078 236.57985 298.35742 235.0625 C 302.09243 233.54516 306.35321 232.78711 311.13867 232.78711 z M 176.06641 233.66211 L 195.41211 233.66211 C 200.83954 233.66211 205.53742 234.82969 209.50586 237.16406 C 213.4743 239.44008 216.53797 242.85422 218.69727 247.40625 C 220.91493 251.95828 222.02344 257.61899 222.02344 264.38867 C 222.02344 271.21673 220.8854 276.9936 218.60938 281.7207 C 216.39172 286.44782 213.21188 290.03719 209.06836 292.48828 C 204.9832 294.93938 200.11008 296.16602 194.44922 296.16602 L 176.06641 296.16602 L 176.06641 233.66211 z M 333.63672 233.66211 L 346.33008 233.66211 L 346.33008 272.70508 C 346.33008 275.9732 346.67859 278.59976 347.37891 280.58398 C 348.07922 282.50984 349.13062 283.90977 350.53125 284.78516 C 351.99024 285.66055 353.79969 286.09766 355.95898 286.09766 C 358.235 286.09766 360.07203 285.66055 361.47266 284.78516 C 362.93164 283.85141 363.98305 282.39242 364.625 280.4082 C 365.26695 278.42398 365.58789 275.82695 365.58789 272.61719 L 365.58789 233.66211 L 378.28125 233.66211 L 378.28125 274.80664 C 378.28125 279.35867 377.43461 283.29657 375.74219 286.62305 C 374.10813 289.94953 371.62727 292.51898 368.30078 294.32812 C 364.97429 296.13726 360.80211 297.04102 355.7832 297.04102 C 350.93937 297.04102 346.85383 296.19438 343.52734 294.50195 C 340.25922 292.75117 337.78031 290.21321 336.08789 286.88672 C 334.45382 283.56023 333.63672 279.56133 333.63672 274.89258 L 333.63672 233.66211 z M 85.724609 236.46289 L 95.355469 236.46289 L 95.355469 248.36914 L 113.30078 248.36914 L 113.30078 258.87305 L 95.355469 258.87305 L 95.355469 278.39453 C 95.355469 280.67054 95.733515 282.39335 96.492188 283.56055 C 97.25086 284.66937 98.272734 285.42742 99.556641 285.83594 C 100.84055 286.24446 102.24047 286.44922 103.75781 286.44922 C 105.15844 286.44922 106.58788 286.3311 108.04688 286.09766 C 109.50585 285.86422 111.40391 285.54328 113.73828 285.13477 L 113.73828 295.11523 C 111.57899 295.81555 109.4486 296.31172 107.34766 296.60352 C 105.30508 296.89532 103.29086 297.04102 101.30664 297.04102 C 97.221484 297.04102 93.779767 296.4582 90.978516 295.29102 C 88.235624 294.06546 86.162344 292.19695 84.761719 289.6875 C 83.361093 287.11969 82.662109 283.79414 82.662109 279.70898 L 82.662109 258.87305 L 71.71875 258.87305 L 71.71875 250.99609 L 83.625 248.36914 L 85.724609 236.46289 z M 250.91211 243.55469 C 248.40266 243.55469 246.33133 244.3718 244.69727 246.00586 C 243.12156 247.58157 241.95399 249.9443 241.19531 253.0957 C 240.495 256.24711 240.14453 260.15742 240.14453 264.82617 C 240.14453 269.49493 240.495 273.40523 241.19531 276.55664 C 241.95399 279.70805 243.12156 282.1003 244.69727 283.73438 C 246.33133 285.31007 248.40266 286.09766 250.91211 286.09766 C 253.42156 286.09766 255.46336 285.31008 257.03906 283.73438 C 258.61476 282.10032 259.78234 279.70805 260.54102 276.55664 C 261.29969 273.40523 261.67969 269.46539 261.67969 264.73828 C 261.67969 257.79351 260.83304 252.54235 259.14062 248.98242 C 257.44821 245.36414 254.70547 243.55469 250.91211 243.55469 z M 188.58398 244.42969 L 188.58398 285.39844 L 193.74805 285.39844 C 199.05875 285.39844 202.93953 283.67563 205.39062 280.23242 C 207.90008 276.78922 209.15625 271.53805 209.15625 264.47656 C 209.15625 259.80781 208.60101 256.01367 207.49219 253.0957 C 206.44171 250.11937 204.86656 247.93187 202.76562 246.53125 C 200.66469 245.13062 198.00859 244.42969 194.79883 244.42969 L 188.58398 244.42969 z M 146.47656 247.49414 C 149.56961 247.49414 152.69234 247.81508 155.84375 248.45703 C 158.99516 249.04062 162.05883 249.97391 165.03516 251.25781 L 161.0957 260.97461 C 158.41117 259.9825 155.84367 259.22445 153.39258 258.69922 C 150.99984 258.17399 148.54852 257.91016 146.03906 257.91016 C 144.1132 257.91016 142.59711 258.14445 141.48828 258.61133 C 140.43781 259.0782 139.91211 259.89531 139.91211 261.0625 C 139.91211 262.11297 140.31969 262.98719 141.13672 263.6875 C 141.95375 264.32945 143.15086 264.94375 144.72656 265.52734 C 146.30226 266.05258 148.19836 266.72398 150.41602 267.54102 C 153.04219 268.47477 155.46399 269.52422 157.68164 270.69141 C 159.8993 271.85859 161.67922 273.40617 163.02148 275.33203 C 164.42211 277.19953 165.12305 279.7375 165.12305 282.94727 C 165.12305 286.21539 164.30594 288.89906 162.67188 291 C 161.03781 293.04258 158.61602 294.56063 155.40625 295.55273 C 152.19648 296.54485 148.19954 297.04102 143.41406 297.04102 C 140.55446 297.04102 137.72313 296.83625 134.92188 296.42773 C 132.17898 296.01922 129.40672 295.2907 126.60547 294.24023 L 126.60547 282.42188 C 129.11493 283.5307 131.94625 284.49351 135.09766 285.31055 C 138.24906 286.06922 141.5175 286.44922 144.90234 286.44922 C 147.12 286.44922 148.87039 286.1854 150.1543 285.66016 C 151.4382 285.07656 152.08008 284.14328 152.08008 282.85938 C 152.08008 281.75054 151.64296 280.87438 150.76758 280.23242 C 149.89218 279.53211 148.60844 278.86266 146.91602 278.2207 C 145.28195 277.52039 143.20867 276.70328 140.69922 275.76953 C 138.07305 274.71906 135.71032 273.63812 133.60938 272.5293 C 131.56679 271.36211 129.93258 269.93266 128.70703 268.24023 C 127.53984 266.48945 126.95703 264.24289 126.95703 261.5 C 126.95703 258.23187 127.77414 255.57578 129.4082 253.5332 C 131.10062 251.43227 133.4043 249.91618 136.32227 248.98242 C 139.24024 247.99032 142.62484 247.49414 146.47656 247.49414 z M 119.16406 361.0332 L 157.12109 405.4707 L 195.08984 361.0332 L 242.53516 361.95312 L 242.53516 506.16992 L 195.08984 506.16992 L 195.08984 433.5957 L 157.30469 480.58594 L 157.30469 481.04102 L 157.12109 480.82422 L 156.94922 481.04102 L 156.94922 480.58594 L 119.16406 433.5957 L 119.16406 506.16992 L 71.71875 506.16992 L 71.71875 361.95312 L 119.16406 361.0332 z M 290.0332 361.0332 L 338.80859 361.0332 L 338.80859 435.35938 L 378.28125 435.35938 L 314.41602 520.2207 L 250.56055 435.35938 L 290.0332 435.35938 L 290.0332 361.0332 z " />
</svg>
